<svg width="188" height="60" viewBox="0 0 188 60" fill="none" xmlns="http://www.w3.org/2000/svg">
<rect x="1" y="1" width="58" height="58" rx="29" fill="#5AA9E6"/>
<rect x="1" y="1" width="58" height="58" rx="29" stroke="#FCF6BD" stroke-width="2"/>
<rect x="10.5" y="16.5" width="37" height="20" rx="9.5" fill="#FF9770"/>
<rect x="10.5" y="16.5" width="37" height="20" rx="9.5" stroke="#FCF6BD"/>
<line x1="16" y1="20" x2="31" y2="20" stroke="#5AA9E6" stroke-width="2" stroke-linecap="round"/>
<line x1="16" y1="23" x2="42" y2="23" stroke="#5AA9E6" stroke-width="2" stroke-linecap="round"/>
<line x1="16" y1="26" x2="42" y2="26" stroke="#5AA9E6" stroke-width="2" stroke-linecap="round"/>
<line x1="16" y1="29" x2="42" y2="29" stroke="#5AA9E6" stroke-width="2" stroke-linecap="round"/>
<line x1="16" y1="32" x2="42" y2="32" stroke="#5AA9E6" stroke-width="2" stroke-linecap="round"/>
<line x1="16" y1="35" x2="42" y2="35" stroke="#5AA9E6" stroke-width="2" stroke-linecap="round"/>
<rect x="13" y="21" width="38" height="23" rx="10" fill="#FCF6BD"/>
<line x1="19" y1="25" x2="34" y2="25" stroke="#5AA9E6" stroke-width="2" stroke-linecap="round"/>
<line x1="19" y1="28" x2="45" y2="28" stroke="#5AA9E6" stroke-width="2" stroke-linecap="round"/>
<line x1="19" y1="31" x2="45" y2="31" stroke="#5AA9E6" stroke-width="2" stroke-linecap="round"/>
<line x1="19" y1="34" x2="45" y2="34" stroke="#5AA9E6" stroke-width="2" stroke-linecap="round"/>
<line x1="19" y1="37" x2="45" y2="37" stroke="#5AA9E6" stroke-width="2" stroke-linecap="round"/>
<line x1="19" y1="40" x2="45" y2="40" stroke="#5AA9E6" stroke-width="2" stroke-linecap="round"/>
<path d="M76.46 19.1719V40.5H71.4502V19.1719H76.46ZM83.0078 28.0488V32.0039H75.0977V28.0488H83.0078ZM83.6084 19.1719V23.1416H75.0977V19.1719H83.6084ZM90.5957 18V40.5H85.791V18H90.5957ZM100.044 36.5156V29.543C100.044 29.0938 100.01 28.752 99.9414 28.5176C99.873 28.2734 99.7607 28.1025 99.6045 28.0049C99.458 27.8975 99.2383 27.8438 98.9453 27.8438C98.7109 27.8438 98.5205 27.9023 98.374 28.0195C98.2275 28.1367 98.125 28.3174 98.0664 28.5615C98.0078 28.8057 97.9785 29.1279 97.9785 29.5283H93.1592C93.1592 28.7959 93.3008 28.1172 93.584 27.4922C93.8672 26.8574 94.2725 26.3057 94.7998 25.8369C95.3271 25.3682 95.957 25.0068 96.6895 24.7529C97.4316 24.4893 98.2617 24.3574 99.1797 24.3574C100.264 24.3574 101.235 24.5332 102.095 24.8848C102.954 25.2266 103.633 25.7783 104.131 26.54C104.639 27.3018 104.893 28.3125 104.893 29.5723V36.501C104.893 37.5361 104.946 38.3223 105.054 38.8594C105.161 39.3867 105.308 39.8506 105.493 40.251V40.5H100.688C100.464 40.0117 100.298 39.416 100.19 38.7129C100.093 38 100.044 37.2676 100.044 36.5156ZM100.586 30.8174L100.615 33.4541H99.3701C99.0674 33.4541 98.8086 33.5273 98.5938 33.6738C98.3789 33.8105 98.1982 33.9961 98.0518 34.2305C97.915 34.4648 97.8174 34.7285 97.7588 35.0215C97.7002 35.3047 97.6709 35.5977 97.6709 35.9004C97.6709 36.3301 97.7148 36.6426 97.8027 36.8379C97.9004 37.0332 98.0176 37.1602 98.1543 37.2188C98.3008 37.2676 98.4619 37.292 98.6377 37.292C99.0088 37.292 99.3164 37.2139 99.5605 37.0576C99.8145 36.8916 99.9951 36.6963 100.103 36.4717C100.21 36.2471 100.239 36.0566 100.19 35.9004L100.688 37.834C100.522 38.1953 100.361 38.5518 100.205 38.9033C100.049 39.2451 99.8535 39.5625 99.6191 39.8555C99.3848 40.1387 99.0967 40.3633 98.7549 40.5293C98.4131 40.7051 97.9834 40.793 97.4658 40.793C96.6455 40.793 95.8838 40.627 95.1807 40.2949C94.4873 39.9629 93.9258 39.4502 93.4961 38.7568C93.0762 38.0635 92.8662 37.1846 92.8662 36.1201C92.8662 35.3877 92.9785 34.7041 93.2031 34.0693C93.4375 33.4248 93.8037 32.8584 94.3018 32.3701C94.7998 31.8818 95.4688 31.501 96.3086 31.2275C97.1582 30.9541 98.1934 30.8174 99.4141 30.8174H100.586ZM114.165 36.1934C114.165 35.9102 114.062 35.6855 113.857 35.5195C113.652 35.3535 113.364 35.1826 112.993 35.0068C112.622 34.8311 112.178 34.5967 111.66 34.3037C111.035 34.0205 110.444 33.7227 109.888 33.4102C109.341 33.0879 108.857 32.7363 108.438 32.3555C108.027 31.9746 107.705 31.5303 107.471 31.0225C107.236 30.5049 107.119 29.9092 107.119 29.2354C107.119 28.5518 107.241 27.917 107.485 27.3311C107.739 26.7451 108.11 26.2324 108.599 25.793C109.087 25.3438 109.683 24.9922 110.386 24.7383C111.089 24.4844 111.895 24.3574 112.803 24.3574C114.043 24.3574 115.112 24.5625 116.011 24.9727C116.909 25.373 117.603 25.9541 118.091 26.7158C118.579 27.4678 118.823 28.3516 118.823 29.3672H114.019C114.019 28.9668 113.984 28.6396 113.916 28.3857C113.848 28.1221 113.721 27.9268 113.535 27.7998C113.359 27.6729 113.11 27.6094 112.788 27.6094C112.622 27.6094 112.451 27.6631 112.275 27.7705C112.1 27.8682 111.953 28.0195 111.836 28.2246C111.719 28.4199 111.66 28.6689 111.66 28.9717C111.66 29.1865 111.699 29.3721 111.777 29.5283C111.865 29.6748 111.987 29.8164 112.144 29.9531C112.3 30.0801 112.48 30.2119 112.686 30.3486C112.9 30.4854 113.149 30.6367 113.433 30.8027C114.272 31.125 115.103 31.4766 115.923 31.8574C116.743 32.2383 117.427 32.751 117.974 33.3955C118.53 34.04 118.809 34.9238 118.809 36.0469C118.809 36.75 118.667 37.3896 118.384 37.9658C118.101 38.542 117.695 39.0449 117.168 39.4746C116.65 39.9043 116.021 40.2314 115.278 40.4561C114.536 40.6807 113.701 40.793 112.773 40.793C111.465 40.793 110.356 40.5342 109.448 40.0166C108.55 39.499 107.871 38.8398 107.412 38.0391C106.953 37.2383 106.724 36.4131 106.724 35.5635H111.191C111.201 36.0518 111.274 36.4424 111.411 36.7354C111.548 37.0186 111.738 37.2236 111.982 37.3506C112.227 37.4678 112.534 37.5264 112.905 37.5264C113.188 37.5264 113.423 37.4775 113.608 37.3799C113.794 37.2725 113.931 37.1211 114.019 36.9258C114.116 36.7207 114.165 36.4766 114.165 36.1934ZM125.708 18V40.5H120.889V18H125.708ZM125.137 32.0332L124.053 32.0625C124.033 30.9492 124.131 29.9238 124.346 28.9863C124.57 28.0488 124.893 27.2334 125.312 26.54C125.742 25.8467 126.255 25.3096 126.851 24.9287C127.456 24.5479 128.125 24.3574 128.857 24.3574C129.502 24.3574 130.098 24.4697 130.645 24.6943C131.201 24.9189 131.68 25.2803 132.08 25.7783C132.48 26.2764 132.793 26.9258 133.018 27.7266C133.242 28.5273 133.354 29.5039 133.354 30.6562V40.5H128.521V30.627C128.521 29.9824 128.462 29.4844 128.345 29.1328C128.228 28.7715 128.052 28.5225 127.817 28.3857C127.593 28.2393 127.305 28.166 126.953 28.166C126.543 28.166 126.211 28.2637 125.957 28.459C125.713 28.6543 125.527 28.9277 125.4 29.2793C125.283 29.6211 125.21 30.0264 125.181 30.4951C125.151 30.9639 125.137 31.4766 125.137 32.0332ZM141.748 36.999C142.08 36.999 142.349 36.9404 142.554 36.8232C142.759 36.7061 142.905 36.4961 142.993 36.1934C143.091 35.8809 143.13 35.4316 143.11 34.8457H147.607C147.627 36.1543 147.383 37.2529 146.875 38.1416C146.377 39.0205 145.693 39.6846 144.824 40.1338C143.955 40.5732 142.969 40.793 141.865 40.793C140.791 40.793 139.854 40.6367 139.053 40.3242C138.252 40.002 137.583 39.5283 137.046 38.9033C136.519 38.2783 136.123 37.502 135.859 36.5742C135.596 35.6465 135.464 34.5674 135.464 33.3369V31.8281C135.464 30.5977 135.596 29.5186 135.859 28.5908C136.123 27.6533 136.519 26.8721 137.046 26.2471C137.583 25.6221 138.247 25.1533 139.038 24.8408C139.839 24.5186 140.771 24.3574 141.836 24.3574C142.988 24.3574 143.999 24.582 144.868 25.0312C145.737 25.4805 146.416 26.1738 146.904 27.1113C147.393 28.0488 147.627 29.25 147.607 30.7148H143.11C143.13 30.1094 143.096 29.6211 143.008 29.25C142.93 28.8691 142.788 28.5957 142.583 28.4297C142.378 28.2539 142.09 28.166 141.719 28.166C141.357 28.166 141.079 28.2344 140.884 28.3711C140.688 28.5078 140.547 28.7227 140.459 29.0156C140.371 29.3086 140.317 29.6895 140.298 30.1582C140.288 30.6172 140.283 31.1738 140.283 31.8281V33.3369C140.283 34.001 140.293 34.5674 140.312 35.0361C140.332 35.5049 140.386 35.8857 140.474 36.1787C140.562 36.4619 140.703 36.6719 140.898 36.8086C141.104 36.9355 141.387 36.999 141.748 36.999ZM156.323 36.5156V29.543C156.323 29.0938 156.289 28.752 156.221 28.5176C156.152 28.2734 156.04 28.1025 155.884 28.0049C155.737 27.8975 155.518 27.8438 155.225 27.8438C154.99 27.8438 154.8 27.9023 154.653 28.0195C154.507 28.1367 154.404 28.3174 154.346 28.5615C154.287 28.8057 154.258 29.1279 154.258 29.5283H149.438C149.438 28.7959 149.58 28.1172 149.863 27.4922C150.146 26.8574 150.552 26.3057 151.079 25.8369C151.606 25.3682 152.236 25.0068 152.969 24.7529C153.711 24.4893 154.541 24.3574 155.459 24.3574C156.543 24.3574 157.515 24.5332 158.374 24.8848C159.233 25.2266 159.912 25.7783 160.41 26.54C160.918 27.3018 161.172 28.3125 161.172 29.5723V36.501C161.172 37.5361 161.226 38.3223 161.333 38.8594C161.44 39.3867 161.587 39.8506 161.772 40.251V40.5H156.968C156.743 40.0117 156.577 39.416 156.47 38.7129C156.372 38 156.323 37.2676 156.323 36.5156ZM156.865 30.8174L156.895 33.4541H155.649C155.347 33.4541 155.088 33.5273 154.873 33.6738C154.658 33.8105 154.478 33.9961 154.331 34.2305C154.194 34.4648 154.097 34.7285 154.038 35.0215C153.979 35.3047 153.95 35.5977 153.95 35.9004C153.95 36.3301 153.994 36.6426 154.082 36.8379C154.18 37.0332 154.297 37.1602 154.434 37.2188C154.58 37.2676 154.741 37.292 154.917 37.292C155.288 37.292 155.596 37.2139 155.84 37.0576C156.094 36.8916 156.274 36.6963 156.382 36.4717C156.489 36.2471 156.519 36.0566 156.47 35.9004L156.968 37.834C156.802 38.1953 156.641 38.5518 156.484 38.9033C156.328 39.2451 156.133 39.5625 155.898 39.8555C155.664 40.1387 155.376 40.3633 155.034 40.5293C154.692 40.7051 154.263 40.793 153.745 40.793C152.925 40.793 152.163 40.627 151.46 40.2949C150.767 39.9629 150.205 39.4502 149.775 38.7568C149.355 38.0635 149.146 37.1846 149.146 36.1201C149.146 35.3877 149.258 34.7041 149.482 34.0693C149.717 33.4248 150.083 32.8584 150.581 32.3701C151.079 31.8818 151.748 31.501 152.588 31.2275C153.438 30.9541 154.473 30.8174 155.693 30.8174H156.865ZM168.54 28.5762V40.5H163.721V24.6504H168.203L168.54 28.5762ZM172.217 24.5332L172.158 29.1182C171.973 29.0986 171.729 29.0742 171.426 29.0449C171.123 29.0156 170.874 29.001 170.679 29.001C170.239 29.001 169.868 29.0693 169.565 29.2061C169.263 29.333 169.009 29.5283 168.804 29.792C168.608 30.0459 168.467 30.3682 168.379 30.7588C168.291 31.1494 168.252 31.6035 168.262 32.1211L167.456 31.5352C167.456 30.4707 167.539 29.5039 167.705 28.6348C167.881 27.7559 168.125 26.999 168.438 26.3643C168.75 25.7197 169.126 25.2266 169.565 24.8848C170.005 24.5332 170.493 24.3574 171.03 24.3574C171.235 24.3574 171.445 24.3721 171.66 24.4014C171.875 24.4307 172.061 24.4746 172.217 24.5332ZM181.152 36.8672V18H185.972V40.5H181.65L181.152 36.8672ZM173.228 33.3516V31.8721C173.228 30.5732 173.335 29.4551 173.55 28.5176C173.774 27.5703 174.102 26.7891 174.531 26.1738C174.971 25.5586 175.518 25.1045 176.172 24.8115C176.836 24.5088 177.593 24.3574 178.442 24.3574C179.165 24.3574 179.785 24.5576 180.303 24.958C180.82 25.3584 181.255 25.915 181.606 26.6279C181.968 27.3408 182.261 28.1758 182.485 29.1328C182.72 30.0898 182.896 31.1152 183.013 32.209V33.2051C182.876 34.2305 182.695 35.2021 182.471 36.1201C182.246 37.0283 181.953 37.834 181.592 38.5371C181.24 39.2402 180.801 39.792 180.273 40.1924C179.756 40.5928 179.136 40.793 178.413 40.793C177.554 40.793 176.802 40.6416 176.157 40.3389C175.513 40.0264 174.971 39.5625 174.531 38.9473C174.102 38.3223 173.774 37.5459 173.55 36.6182C173.335 35.6904 173.228 34.6016 173.228 33.3516ZM178.032 31.8721V33.3516C178.032 34.0352 178.052 34.6113 178.091 35.0801C178.14 35.5391 178.223 35.9102 178.34 36.1934C178.467 36.4766 178.638 36.6816 178.853 36.8086C179.067 36.9258 179.341 36.9844 179.673 36.9844C180.132 36.9844 180.508 36.8477 180.801 36.5742C181.094 36.3008 181.304 35.9102 181.431 35.4023C181.558 34.8848 181.592 34.2793 181.533 33.5859V31.7988C181.572 31.1934 181.553 30.666 181.475 30.2168C181.406 29.7578 181.289 29.377 181.123 29.0742C180.967 28.7715 180.767 28.5469 180.522 28.4004C180.288 28.2441 180.015 28.166 179.702 28.166C179.39 28.166 179.121 28.2295 178.896 28.3564C178.682 28.4736 178.511 28.6738 178.384 28.957C178.267 29.2402 178.179 29.6211 178.12 30.0996C178.062 30.5781 178.032 31.1689 178.032 31.8721Z" fill="#5AA9E6"/>
</svg>
